<svg id="Layer_1" enable-background="new 0 0 512.044 512.044" height="512" viewBox="0 0 512.044 512.044" width="512" xmlns="http://www.w3.org/2000/svg"><g><path d="m474.544.026h-39.206c-9.697 0-9.697 15 0 15h39.206c12.407 0 22.5 10.094 22.5 22.5v25.695h-482v-25.695c0-12.406 10.093-22.5 22.5-22.5h353.847c9.697 0 9.697-15 0-15h-353.847c-20.678 0-37.5 16.822-37.5 37.5v330.392c-1.062 20.947 17.273 38.604 37.777 38.604h299.249l.166 98.017c.011 6.668 8.602 10.261 13.21 4.85l51.812-60.848 79.924 3.426c6.812.275 10.437-8.316 5.436-12.979l-36.009-33.569h22.934c20.678 0 37.5-16.822 37.5-37.5v-330.393c.001-20.678-16.821-37.5-37.499-37.5zm-151.573 78.195-33.995 75.418h-211.598c-16.593 0-30.092 13.499-30.092 30.092v79.736c0 16.593 13.5 30.092 30.092 30.092h52.651c9.697 0 9.697-15 0-15h-52.651c-8.322 0-15.092-6.771-15.092-15.092v-79.736c0-8.321 6.771-15.092 15.092-15.092h353.147c8.322 0 15.092 6.771 15.092 15.092v79.736c0 8.321-6.77 15.092-15.092 15.092h-260.568c-9.697 0-9.697 15 0 15h55.95l-43.659 96.858h-144.704c-12.407 0-22.5-10.094-22.5-22.5v-289.696zm80.955 355.377-13.194-30.268c-3.874-8.89-17.625-2.895-13.75 5.994l13.194 30.27-37.974 44.596-.253-151.173 110.587 103.093zm70.618-43.18h-39.024l-85.985-80.159c-4.708-4.387-12.625-.936-12.614 5.499l.125 74.66h-138.345l43.659-96.858h188.165c16.593 0 30.092-13.499 30.092-30.092v-79.736c0-16.593-13.499-30.092-30.092-30.092h-125.095l33.995-75.418h157.619v289.696c0 12.406-10.093 22.5-22.5 22.5z"/><path d="m352.394 260.713c4.142 0 7.5-3.357 7.5-7.5v-59.229c-.344-9.931-14.66-9.923-15 0v59.229c0 4.143 3.357 7.5 7.5 7.5z"/><path d="m231.455 260.173h24.729c9.927-.342 9.927-14.658 0-15h-17.229v-14.345h15.406c4.142 0 7.5-3.357 7.5-7.5s-3.358-7.5-7.5-7.5h-15.406v-14.345h17.229c9.917-.335 9.935-14.657 0-15h-24.729c-4.142 0-7.5 3.357-7.5 7.5v58.689c0 4.144 3.357 7.501 7.5 7.501z"/><path d="m279.376 256.784c1.626 1.455 3.397 2.181 5.312 2.178.492-.002 12.102.081 16.742 0 40.111-.791 40.257-73.088-.608-72.477h-16.278c-4.197 0-7.5 3.396-7.5 7.56v56.484c.066 2.275.844 4.361 2.332 6.255zm21.446-55.3c14.579 0 15.711 16.257 15.711 21.239 0 14.399-7.718 21.066-15.366 21.2-2.081.036-5.707-.021-9.033 0-.045-14.146-.053-28.293-.078-42.439z"/><path d="m148.458 249.675c2.663-3.173 2.249-7.903-.924-10.566-3.172-2.662-7.902-2.249-10.566.924-12.74 13.558-35.528 1.083-35.027-16.434-.153-17.513 20.066-28.259 34.475-18.343 8.424 5.272 16.428-6.593 8.396-12.43-24.191-16.657-58.123 1.371-57.87 30.773-.662 31.294 40.051 50.517 61.516 26.076z"/><path d="m380.753 201.484h8.789v51.729c.344 9.931 14.66 9.923 15 0v-51.729h8.921c9.931-.344 9.923-14.66 0-15h-32.71c-9.931.344-9.923 14.659 0 15z"/><path d="m171.072 260.713c4.142 0 7.5-3.357 7.5-7.5v-16.511l18.893 21.466c6.498 7.385 17.607-2.699 11.26-9.91l-14.951-16.987c25.823-8.114 20.322-44.264-6.943-44.787-.017-.003-15.742.002-15.758 0-4.142 0-7.5 3.357-7.5 7.5v59.229c-.001 4.143 3.357 7.5 7.499 7.5zm15.759-59.229c4.751 0 8.765 3.615 8.765 7.894s-4.014 7.893-8.765 7.893c-1.912 0-5.14.013-8.172.027-.026-5.271-.029-10.542-.044-15.813h8.216z"/><path d="m45.044 47.222c9.652 0 9.668-15 0-15-9.652 0-9.668 15 0 15z"/><path d="m76.335 47.222c9.652 0 9.668-15 0-15-9.651 0-9.667 15 0 15z"/><path d="m107.627 47.222c9.652 0 9.668-15 0-15-9.652 0-9.668 15 0 15z"/></g></svg>