<?xml version="1.0" encoding="utf-8"?>
<!-- Svg Vector Icons : http://www.onlinewebfonts.com/icon -->
<!DOCTYPE svg PUBLIC "-//W3C//DTD SVG 1.1//EN" "http://www.w3.org/Graphics/SVG/1.1/DTD/svg11.dtd">
<svg version="1.1" xmlns="http://www.w3.org/2000/svg" xmlns:xlink="http://www.w3.org/1999/xlink" x="0px" y="0px" viewBox="0 0 1000 1000" enable-background="new 0 0 1000 1000" xml:space="preserve">
<metadata> Svg Vector Icons : http://www.onlinewebfonts.com/icon </metadata>
<g><g transform="translate(0.000000,511.000000) scale(0.100000,-0.100000)"><path d="M882.2,4782.2v-158.4h237.6h237.6V3514.9V2406h-237.6H882.2v-158.4v-158.4h633.6h633.6v158.4V2406h-237.6h-237.6v1108.9v1108.9h237.6h237.6v158.4v158.4h-633.6H882.2V4782.2z"/><path d="M2624.7,3516.8V2089.2h158.4h158.4v631.7v631.7l402,7.9l402,5.9l148.5,73.3c184.2,91.1,312.9,221.8,400,407.9c55.5,116.8,63.4,152.5,63.4,303c0,154.4-5.9,180.2-73.3,316.8c-91.1,184.2-221.8,312.9-407.9,400l-132.7,63.4l-558.4,5.9l-560.4,5.9V3516.8z M3757.3,4594c303-104.9,394-546.5,160.4-786.1c-112.9-116.8-196-134.6-613.8-134.6h-362.4v475.2v475.2h362.4C3579.1,4623.7,3688,4615.8,3757.3,4594z"/><path d="M5581.1,4910.9c-340.6-93.1-619.8-374.2-708.9-712.9c-43.6-168.3-43.6-1198,0-1366.3c122.8-469.3,605.9-803.9,1049.5-728.7c374.3,63.4,695,360.4,792.1,728.7c43.6,166.3,43.6,1198,0,1362.3c-43.6,172.3-120.8,306.9-251.5,441.6C6220.6,4887.1,5884,4992.1,5581.1,4910.9z M6080,4564.3c122.8-59.4,227.7-164.4,289.1-289.1c47.5-97,47.5-99,47.5-760.4c0-661.4,0-663.4-47.5-760.4c-61.4-124.8-166.3-229.7-291.1-291.1c-81.2-39.6-126.7-47.5-285.1-47.5s-203.9,7.9-285.2,47.5c-124.7,61.4-229.7,166.3-291.1,291.1c-47.5,95-47.5,108.9-53.5,701c-4,400,0,637.6,15.8,706.9c41.6,194.1,188.1,356.4,386.1,427.7C5705.8,4639.6,5947.4,4627.7,6080,4564.3z"/><path d="M9115.6,4122.8c-198-75.2-310.9-174.3-407.9-358.4c-71.3-136.6-75.2-356.4-7.9-483.2c39.6-73.3,41.6-91.1,19.8-118.8c-13.9-17.8-821.8-962.4-1796-2099C5640.4-435.5,5145.4-999.9,5121.6-992c-17.8,4-67.3,23.8-110.9,39.6c-160.4,61.4-354.4,25.7-526.7-97l-91.1-65.4l-592.1,415.8c-324.7,227.7-600,421.8-607.9,431.7c-9.9,7.9-2,45.5,17.8,81.2c23.8,47.5,35.6,112.9,35.6,215.8c2,124.7-7.9,166.3-53.5,251.5c-77.2,148.5-154.5,227.7-295,304.9c-110.9,59.4-140.6,67.3-273.3,67.3c-122.8,0-166.3-9.9-251.5-55.4c-148.5-77.2-227.7-154.5-304.9-295c-59.4-110.9-67.3-140.6-67.3-273.3c0-114.9,9.9-166.3,43.6-227.7l43.6-79.2l-526.7-528.7l-526.7-528.7l-81.2,43.5c-124.8,65.4-344.5,59.4-481.2-11.9c-148.5-77.2-227.7-154.5-304.9-295.1c-59.4-110.9-67.3-142.6-67.3-273.2c0-130.7,7.9-162.4,67.3-273.3c77.2-140.6,156.4-217.8,304.9-295c146.5-77.2,354.5-77.2,503,0c148.5,77.2,227.7,154.5,304.9,295c57.4,108.9,65.3,142.6,65.3,273.3c2,114.8-7.9,166.3-41.6,227.7l-43.6,79.2l526.7,528.7l526.7,528.7l81.2-43.6c114.9-59.4,344.5-59.4,461.4,2c45.5,23.8,93.1,43.6,103,43.6c11.9,0,299-196,641.6-433.7l617.8-433.7v-164.3c0-152.5,5.9-176.2,67.3-291.1c77.2-140.6,156.4-217.8,304.9-295c148.5-77.2,356.4-77.2,503,0c148.5,77.2,227.7,154.5,304.9,295c59.4,110.9,67.3,140.6,65.4,273.3c0,112.9-9.9,168.3-45.6,233.6c-37.6,73.3-39.6,91.1-17.8,118.8c13.9,17.8,821.8,962.4,1796,2099C8480,2396.1,8975,2960.4,8998.8,2952.5c17.8-4,71.3-23.8,120.8-41.6c168.3-63.4,409.9-2,580.2,148.5c37.6,31.7,97,114.8,134.6,182.2c57.4,108.9,65.4,142.6,65.4,273.3c2,124.7-7.9,166.3-53.5,251.5c-77.2,148.5-154.5,227.7-293.1,303C9410.7,4144.5,9234.4,4166.3,9115.6,4122.8z M9472,3780.2c87.1-65.3,126.7-160.4,116.8-291.1c-11.9-198-130.7-299-336.6-285.1c-198,11.9-299,130.7-285.2,336.6c7.9,130.7,51.5,204,154.5,257.4C9210.7,3845.5,9394.8,3835.6,9472,3780.2z M2818.7,295.1c87.1-65.3,126.7-160.4,116.8-291.1c-11.9-198-130.7-299-336.6-285.2c-198,11.9-299,130.7-285.1,336.6c7.9,130.7,51.5,204,154.5,257.4C2557.4,360.5,2741.5,350.6,2818.7,295.1z M5036.5-1289c87.1-65.3,126.7-160.4,116.8-291.1c-11.9-198-130.7-299-336.6-285.2c-198,11.9-299,130.7-285.1,336.6c7.9,130.7,51.5,204,154.5,257.4C4775.1-1223.6,4959.3-1233.5,5036.5-1289z M917.8-1605.8c87.1-65.3,126.7-160.4,116.8-291.1c-11.9-198-130.7-299-336.6-285.1c-198,11.9-299,130.7-285.1,336.6c7.9,130.7,51.5,204,154.5,257.4C656.4-1540.5,840.6-1550.4,917.8-1605.8z"/><path d="M9119.6-1079.1v-3643.5H9278h158.4v3643.5v3643.5H9278h-158.4V-1079.1z"/><path d="M8169.1-1475.1v-3247.4h158.4h158.4v3247.4v3247.4h-158.4h-158.4V-1475.1z"/><path d="M7218.6-2029.5v-2693h158.4h158.4v2693v2693h-158.4h-158.4V-2029.5z"/><path d="M6268.2-2584v-2138.6h158.4H6585V-2584v2138.6h-158.4h-158.4V-2584z"/><path d="M2466.3-2821.6v-1900.9h158.4h158.4v1900.9v1900.9h-158.4h-158.4V-2821.6z"/><path d="M3416.7-3059.2v-1663.3h158.4h158.4v1663.3v1663.3h-158.4h-158.4V-3059.2z"/><path d="M1515.8-3138.4v-1584.1h158.4h158.4v1584.1v1584.1h-158.4h-158.4V-3138.4z"/><path d="M4367.2-3613.7v-1108.9h158.4H4684v1108.9v1108.9h-158.4h-158.4V-3613.7z"/><path d="M5317.7-3613.7v-1108.9h158.4h158.4v1108.9v1108.9h-158.4h-158.4V-3613.7z"/><path d="M565.3-3772.1v-950.5h158.4h158.4v950.5v950.5H723.7H565.3V-3772.1z"/></g></g>
</svg>